HIERARCHY
ROOT Hips
{
	OFFSET 0.000000 0.000000 0.000000
	CHANNELS 6 Xposition Yposition Zposition Zrotation Yrotation Xrotation 
	JOINT LowerBack
	{
		OFFSET 0.000000 0.000000 0.000000
		CHANNELS 3 Zrotation Yrotation Xrotation
		JOINT Spine
		{
			OFFSET 0.028270 2.035590 -0.193380
			CHANNELS 3 Zrotation Yrotation Xrotation
			JOINT Spine1
			{
				OFFSET 0.056720 2.048850 -0.042750
				CHANNELS 3 Zrotation Yrotation Xrotation
				JOINT Neck
				{
					OFFSET 0.000000 0.000000 0.000000
					CHANNELS 3 Zrotation Yrotation Xrotation
					JOINT Neck1
					{
						OFFSET -0.054170 1.746240 0.172020
						CHANNELS 3 Zrotation Yrotation Xrotation
						JOINT Head
						{
							OFFSET 0.104070 1.761360 -0.123970
							CHANNELS 3 Zrotation Yrotation Xrotation
							End Site
							{
								OFFSET 0.000000 0.000000 0.000000
							}
						}
					}
				}
				JOINT LeftShoulder
				{
					OFFSET 0.000000 0.000000 0.000000
					CHANNELS 3 Zrotation Yrotation Xrotation
					JOINT LeftArm
					{
						OFFSET 3.362410 1.200890 -0.311210
						CHANNELS 3 Zrotation Yrotation Xrotation
						JOINT LeftForeArm
						{
							OFFSET 4.983000 -0.000000 -0.000000
							CHANNELS 3 Zrotation Yrotation Xrotation
							JOINT LeftHand
							{
								OFFSET 3.483560 -0.000000 -0.000000
								CHANNELS 3 Zrotation Yrotation Xrotation
								JOINT LeftFingerBase
								{
									OFFSET 0.000000 0.000000 0.000000
									CHANNELS 3 Zrotation Yrotation Xrotation
									JOINT LeftHandIndex1
									{
										OFFSET 0.715260 -0.000000 -0.000000
										CHANNELS 3 Zrotation Yrotation Xrotation
										End Site
										{
											OFFSET 0.000000 0.000000 0.000000
										}
									}
								}
								JOINT LThumb
								{
									OFFSET 0.000000 0.000000 0.000000
									CHANNELS 3 Zrotation Yrotation Xrotation
									End Site
									{
										OFFSET 0.000000 0.000000 0.000000
									}
								}
							}
						}
					}
				}
				JOINT RightShoulder
				{
					OFFSET 0.000000 0.000000 0.000000
					CHANNELS 3 Zrotation Yrotation Xrotation
					JOINT RightArm
					{
						OFFSET -3.136600 1.374050 -0.404650
						CHANNELS 3 Zrotation Yrotation Xrotation
						JOINT RightForeArm
						{
							OFFSET -5.241900 -0.000000 -0.000000
							CHANNELS 3 Zrotation Yrotation Xrotation
							JOINT RightHand
							{
								OFFSET -3.444170 -0.000000 -0.000000
								CHANNELS 3 Zrotation Yrotation Xrotation
								JOINT RightFingerBase
								{
									OFFSET 0.000000 0.000000 0.000000
									CHANNELS 3 Zrotation Yrotation Xrotation
									JOINT RightHandIndex1
									{
										OFFSET -0.622530 -0.000000 -0.000000
										CHANNELS 3 Zrotation Yrotation Xrotation
										End Site
										{
											OFFSET 0.000000 0.000000 0.000000
										}
									}
								}
								JOINT RThumb
								{
									OFFSET 0.000000 0.000000 0.000000
									CHANNELS 3 Zrotation Yrotation Xrotation
									End Site
									{
										OFFSET 0.000000 0.000000 0.000000
									}
								}
							}
						}
					}
				}
			}
		}
	}
}
}
MOTION
Frames: 9
Frame Time: 0.008333
0.657755 17.461049 0.522512 -175.107282 -61.437546 -164.875488 1.496848 -6.961370 -12.499469 0.002523 -7.355831 -4.385346 -8.155983 -7.223018 1.802928 18.649010 -15.791206 -8.441261 -1.162510 -0.070931 -0.119719 0.000000 0.000000 0.000000 26.190928 -7.793353 4.565930 -3.397535 -34.567777 -27.876465 -3.329443 0.386006 -0.040599 -14.779303 23.020897 -3.053121 0.005298 -0.180841 -0.000000 0.000000 0.000000 0.000000 0.000000 0.000000 0.000000 8.728355 -17.325321 -3.898775 78.169894 20.342492 28.236179 -177.674999 53.063080 179.705959 -29.554153 39.756558 -11.619165 0.525911 -1.721586 -0.000000 0.000000 0.000000 0.000000 0.000000 0.000000 0.000000 
0.649579 17.456853 0.518093 -175.292956 -60.648149 -164.883793 1.745116 -6.712729 -12.468851 0.045394 -7.144236 -4.344325 -8.147845 -7.005862 2.025464 18.240362 -16.023964 -8.668845 -1.131568 -0.064434 -0.185385 0.000000 0.000000 0.000000 25.280905 -5.849670 4.375812 -4.045572 -38.002455 -26.296017 -3.502942 2.344031 -0.033023 -16.096586 21.049558 -3.038009 0.022193 -0.158340 -0.000000 0.000000 0.000000 0.000000 0.000000 0.000000 0.000000 8.168050 -17.421820 -3.957619 78.704227 19.508438 28.280950 -177.543903 52.900991 179.700664 -29.371362 39.752419 -11.541250 0.512330 -1.721124 -0.000000 0.000000 0.000000 0.000000 0.000000 0.000000 0.000000 
0.645593 17.451696 0.512735 -175.497394 -59.858542 -164.901639 1.940320 -6.458136 -12.388167 0.071798 -6.918295 -4.299238 -8.146684 -6.773527 2.219222 17.854101 -16.232013 -8.870604 -1.124087 -0.060231 -0.243315 0.000000 0.000000 0.000000 24.252761 -4.226445 4.222294 -5.151275 -40.272405 -24.826162 -3.404247 1.934015 -0.026172 -15.007006 19.491029 -2.611054 0.010968 -0.122497 -0.000000 0.000000 0.000000 0.000000 0.000000 0.000000 0.000000 7.680863 -17.396988 -3.991910 79.166305 18.578643 28.266150 -177.429982 52.716973 179.695548 -29.407162 39.760484 -11.557611 0.506639 -1.723307 -0.000000 0.000000 0.000000 0.000000 0.000000 0.000000 0.000000 
0.646456 17.445899 0.508014 -175.735145 -59.105102 -164.947506 2.087625 -6.210400 -12.239554 0.075042 -6.687105 -4.251397 -8.171985 -6.534102 2.373616 17.474042 -16.399181 -9.020828 -1.153651 -0.059824 -0.286213 0.000000 0.000000 0.000000 23.196743 -3.115891 4.121142 -7.032458 -40.655925 -23.111326 -3.012583 -2.016251 -0.021429 -11.770773 18.691654 -1.947446 -0.025696 -0.068712 -0.000000 0.000000 0.000000 0.000000 0.000000 0.000000 0.000000 7.280655 -17.235521 -3.990902 79.562717 17.576159 28.182381 -177.345612 52.542301 179.691075 -29.688920 39.765361 -11.674904 0.510696 -1.728077 -0.000000 0.000000 0.000000 0.000000 0.000000 0.000000 0.000000 
0.650024 17.439117 0.503507 -176.006243 -58.453812 -164.953388 2.172530 -5.973890 -12.071598 0.051465 -6.460021 -4.229310 -8.247526 -6.301882 2.382902 17.140597 -16.518361 -9.044012 -1.214339 -0.064281 -0.292063 0.000000 0.000000 0.000000 22.100928 -2.596207 3.913619 -8.991433 -40.192797 -21.760463 -2.441143 -6.684504 -0.021108 -6.723372 16.718144 -0.976442 -0.080966 0.018526 0.000000 0.000000 0.000000 0.000000 0.000000 0.000000 0.000000 6.987502 -16.984523 -3.918568 79.849576 16.454415 28.022421 -177.282558 52.378609 179.686988 -30.179054 39.718815 -11.862162 0.522674 -1.732572 -0.000000 0.000000 0.000000 0.000000 0.000000 0.000000 0.000000 
0.655628 17.431412 0.500112 -176.318267 -57.933439 -164.919797 2.211588 -5.744235 -11.893193 0.002307 -6.233049 -4.236536 -8.380416 -6.072956 2.247372 16.827180 -16.590735 -8.927962 -1.309996 -0.074020 -0.257938 0.000000 0.000000 0.000000 20.908591 -2.631943 3.596619 -10.857629 -39.002366 -20.556346 -1.798946 -11.924624 -0.030911 -0.817280 13.293458 -0.078001 -0.143776 0.140254 -0.000000 0.000000 0.000000 0.000000 0.000000 0.000000 0.000000 6.782733 -16.692442 -3.773047 80.054879 15.248277 27.808931 -177.243597 52.252324 179.683623 -30.819713 39.594672 -12.086304 0.541306 -1.735391 -0.000000 0.000000 0.000000 0.000000 0.000000 0.000000 0.000000 
0.661851 17.422751 0.498192 -176.671753 -57.565904 -164.832797 2.225882 -5.515475 -11.736061 -0.064690 -6.003146 -4.271345 -8.561852 -5.844266 2.009826 16.513527 -16.628302 -8.701409 -1.433769 -0.087869 -0.192559 0.000000 0.000000 0.000000 19.562991 -3.035685 3.203850 -12.470842 -37.424895 -19.613802 -1.205602 -17.448646 -0.052798 4.903493 8.764289 0.378525 -0.195783 0.277201 -0.000000 0.000000 0.000000 0.000000 0.000000 0.000000 0.000000 6.637123 -16.421154 -3.573934 80.208061 14.014585 27.574989 -177.225966 52.178575 179.681313 -31.506425 39.367179 -12.294168 0.563866 -1.734934 -0.000000 0.000000 0.000000 0.000000 0.000000 0.000000 0.000000 
0.667385 17.413100 0.498224 -177.056464 -57.350360 -164.692301 2.232045 -5.291720 -11.611668 -0.137416 -5.777239 -4.321880 -8.764913 -5.622494 1.737503 16.196708 -16.646864 -8.425330 -1.568746 -0.103342 -0.113566 0.000000 0.000000 0.000000 18.060498 -3.546575 2.796473 -13.829465 -35.815170 -18.989155 -0.744133 -23.017866 -0.081114 9.648483 3.967737 0.308550 -0.222392 0.398444 -0.000000 0.000000 0.000000 0.000000 0.000000 0.000000 0.000000 6.523600 -16.207976 -3.356794 80.330531 12.837488 27.359311 -177.226580 52.175116 179.680284 -32.118294 39.028020 -12.431227 0.586757 -1.730019 -0.000000 0.000000 0.000000 0.000000 0.000000 0.000000 0.000000 
0.671376 17.402588 0.500556 -177.461317 -57.265305 -164.506589 2.242810 -5.088419 -11.516520 -0.202955 -5.572536 -4.374486 -8.955337 -5.424196 1.488278 15.882296 -16.658197 -8.161978 -1.694827 -0.117791 -0.038505 0.000000 0.000000 0.000000 16.454047 -3.938854 2.423769 -15.061900 -34.379483 -18.564133 -0.433004 -28.512425 -0.107589 13.133810 -0.299889 -0.091166 -0.224343 0.485169 -0.000000 0.000000 0.000000 0.000000 0.000000 0.000000 0.000000 6.410185 -16.052689 -3.155859 80.437116 11.798931 27.201344 -177.243255 52.255330 179.680552 -32.533718 38.578966 -12.448045 0.606251 -1.720434 -0.000000 0.000000 0.000000 0.000000 0.000000 0.000000 0.000000 
